<svg width="39" height="22" viewBox="0 0 39 22" fill="none" xmlns="http://www.w3.org/2000/svg">
<path d="M14.6359 21.2934C16.8903 21.2934 18.4631 19.7085 18.4631 17.4368V3.93864C18.4631 1.66694 16.8903 0.0820312 14.6359 0.0820312H4.49125C2.23688 0.0820312 0.664062 1.66694 0.664062 3.93864V9.56505C0.664062 11.8368 2.23688 13.4217 4.49125 13.4217H13.2204V16.5386H6.16892V14.6896H0.926198V17.4368C0.926198 19.7085 2.49901 21.2934 4.75338 21.2934H14.6359ZM13.2204 9.06316H5.90678V4.83675H13.2204V9.06316ZM35.0897 21.2934C37.344 21.2934 38.9169 19.7085 38.9169 17.4368V3.93864C38.9169 1.66694 37.344 0.0820312 35.0897 0.0820312H25.0236C22.7693 0.0820312 21.1965 1.66694 21.1965 3.93864V17.4368C21.1965 19.7085 22.7693 21.2934 25.0236 21.2934H35.0897ZM33.6741 16.5386H26.4392V4.83675H33.6741V16.5386Z" fill="white"/>
</svg>
