<svg width="127" height="31" viewBox="0 0 127 31" fill="none" xmlns="http://www.w3.org/2000/svg">
<path d="M17.8327 24.1536C20.2867 24.1536 21.9988 22.413 21.9988 19.9181V10.3738H11.6121V15.6536H16.2919V18.9318H6.30464V6.08024H16.2919V8.31403H21.9988V5.09389C21.9988 2.59901 20.2867 0.858398 17.8327 0.858398H4.76375C2.30975 0.858398 0.597656 2.59901 0.597656 5.09389V19.9181C0.597656 22.413 2.30975 24.1536 4.76375 24.1536H13.6666L16.2919 20.4403V24.1536H17.8327ZM37.8233 24.1536C40.2202 24.1536 41.9323 22.471 41.9323 20.0342V6.08024H36.3395V19.0478H30.3186V6.08024H24.7258V20.0342C24.7258 22.471 26.4378 24.1536 28.8348 24.1536H37.8233ZM62.1956 24.1536C64.6496 24.1536 66.3617 22.413 66.3617 19.9181V10.3738H55.975V15.6536H60.6548V18.9318H50.6675V6.08024H60.6548V8.31403H66.3617V5.09389C66.3617 2.59901 64.6496 0.858398 62.1956 0.858398H49.1266C46.6726 0.858398 44.9605 2.59901 44.9605 5.09389V19.9181C44.9605 22.413 46.6726 24.1536 49.1266 24.1536H58.0295L60.6548 20.4403V24.1536H62.1956ZM82.1291 24.1536C84.526 24.1536 86.2381 22.471 86.2381 20.0342V10.1417C86.2381 7.70482 84.526 6.08024 82.1291 6.08024H73.1406C70.7437 6.08024 69.0316 7.70482 69.0316 10.1417V20.0342C69.0316 22.471 70.7437 24.1536 73.1406 24.1536H82.1291ZM80.6453 19.0478H74.6244V11.186H80.6453V19.0478ZM106.418 24.1536V10.1417C106.418 7.70482 104.706 6.08024 102.309 6.08024H89.2119V24.1536H94.8048V11.186H100.826V24.1536H106.418ZM122.312 30.5359C124.709 30.5359 126.421 28.8533 126.421 26.4164V10.1417C126.421 7.70482 124.709 6.08024 122.312 6.08024H113.323C110.927 6.08024 109.214 7.70482 109.214 10.1417V18.5837C109.214 21.0205 110.641 22.413 113.038 22.413H120.828V25.5461H115.092V23.5734H109.5V26.4164C109.5 28.8533 111.212 30.5359 113.608 30.5359H122.312ZM120.828 17.7134H114.807V11.07H120.828V17.7134Z" fill="white"/>
</svg>
