<svg width="193" height="49" viewBox="0 0 193 49" fill="none" xmlns="http://www.w3.org/2000/svg">
<path d="M29.9213 39.802C33.4558 39.802 35.9218 37.2935 35.9218 33.6979V19.9428H20.9618V27.552H27.702V32.2764H13.3174V13.7551H27.702V16.9744H35.9218V12.3336C35.9218 8.73802 33.4558 6.22949 29.9213 6.22949H11.0981C7.56358 6.22949 5.09766 8.73802 5.09766 12.3336V33.6979C5.09766 37.2935 7.56358 39.802 11.0981 39.802H23.9209L27.702 34.4505V39.802H29.9213ZM58.7137 39.802C62.166 39.802 64.6319 37.3771 64.6319 33.8652V13.7551H56.5765V32.4437H47.9047V13.7551H39.8493V33.8652C39.8493 37.3771 42.3153 39.802 45.7676 39.802H58.7137ZM93.8172 39.802C97.3517 39.802 99.8176 37.2935 99.8176 33.6979V19.9428H84.8576V27.552H91.5978V32.2764H77.2132V13.7551H91.5978V16.9744H99.8176V12.3336C99.8176 8.73802 97.3517 6.22949 93.8172 6.22949H74.9939C71.4594 6.22949 68.9935 8.73802 68.9935 12.3336V33.6979C68.9935 37.2935 71.4594 39.802 74.9939 39.802H87.8167L91.5978 34.4505V39.802H93.8172ZM122.527 39.802C125.98 39.802 128.446 37.3771 128.446 33.8652V19.6083C128.446 16.0964 125.98 13.7551 122.527 13.7551H109.581C106.129 13.7551 103.663 16.0964 103.663 19.6083V33.8652C103.663 37.3771 106.129 39.802 109.581 39.802H122.527ZM120.39 32.4437H111.718V21.1135H120.39V32.4437ZM157.511 39.802V19.6083C157.511 16.0964 155.045 13.7551 151.593 13.7551H132.729V39.802H140.784V21.1135H149.456V39.802H157.511ZM180.402 49C183.854 49 186.32 46.5751 186.32 43.0631V19.6083C186.32 16.0964 183.854 13.7551 180.402 13.7551H167.456C164.004 13.7551 161.538 16.0964 161.538 19.6083V31.7747C161.538 35.2867 163.593 37.2935 167.045 37.2935H178.265V41.8088H170.004V38.9658H161.949V43.0631C161.949 46.5751 164.415 49 167.867 49H180.402ZM178.265 30.5204H169.593V20.9462H178.265V30.5204Z" fill="#FFEBF0"/>
<path d="M27.1245 39.1331C30.659 39.1331 33.1249 36.6245 33.1249 33.029V19.2739H18.1649V26.8831H24.9051V31.6075H10.5205V13.0861H24.9051V16.3054H33.1249V11.6646C33.1249 8.06908 30.659 5.56055 27.1245 5.56055H8.30121C4.76671 5.56055 2.30078 8.06908 2.30078 11.6646V33.029C2.30078 36.6245 4.76671 39.1331 8.30121 39.1331H21.124L24.9051 33.7815V39.1331H27.1245ZM55.9168 39.1331C59.3691 39.1331 61.835 36.7082 61.835 33.1962V13.0861H53.7797V31.7747H45.1078V13.0861H37.0524V33.1962C37.0524 36.7082 39.5184 39.1331 42.9707 39.1331H55.9168ZM91.0203 39.1331C94.5548 39.1331 97.0207 36.6245 97.0207 33.029V19.2739H82.0607V26.8831H88.8009V31.6075H74.4164V13.0861H88.8009V16.3054H97.0207V11.6646C97.0207 8.06908 94.5548 5.56055 91.0203 5.56055H72.197C68.6625 5.56055 66.1966 8.06908 66.1966 11.6646V33.029C66.1966 36.6245 68.6625 39.1331 72.197 39.1331H85.0198L88.8009 33.7815V39.1331H91.0203ZM119.73 39.1331C123.183 39.1331 125.649 36.7082 125.649 33.1962V18.9394C125.649 15.4274 123.183 13.0861 119.73 13.0861H106.784C103.332 13.0861 100.866 15.4274 100.866 18.9394V33.1962C100.866 36.7082 103.332 39.1331 106.784 39.1331H119.73ZM117.593 31.7747H108.921V20.4445H117.593V31.7747ZM154.714 39.1331V18.9394C154.714 15.4274 152.248 13.0861 148.796 13.0861H129.932V39.1331H137.987V20.4445H146.659V39.1331H154.714ZM177.605 48.331C181.058 48.331 183.523 45.9061 183.523 42.3942V18.9394C183.523 15.4274 181.058 13.0861 177.605 13.0861H164.659C161.207 13.0861 158.741 15.4274 158.741 18.9394V31.1058C158.741 34.6177 160.796 36.6245 164.249 36.6245H175.468V41.1399H167.207V38.2969H159.152V42.3942C159.152 45.9061 161.618 48.331 165.07 48.331H177.605ZM175.468 29.8515H166.796V20.2773H175.468V29.8515Z" fill="#ED234B"/>
</svg>
