<svg width="30" height="24" viewBox="0 0 30 24" fill="none" xmlns="http://www.w3.org/2000/svg">
<path d="M29.3333 22.676C29.3309 23.0262 29.1908 23.3613 28.9433 23.609C28.6958 23.8568 28.3608 23.9972 28.0107 24H3.98933C3.63842 23.9996 3.302 23.86 3.05399 23.6117C2.80598 23.3635 2.66667 23.0269 2.66667 22.676V21.3333H26.6667V5.73333L16 15.3333L2.66667 3.33333V1.33333C2.66667 0.979711 2.80714 0.640573 3.05719 0.390524C3.30724 0.140476 3.64638 0 4 0H28C28.3536 0 28.6928 0.140476 28.9428 0.390524C29.1929 0.640573 29.3333 0.979711 29.3333 1.33333V22.676ZM5.912 2.66667L16 11.7467L26.088 2.66667H5.912ZM0 16H10.6667V18.6667H0V16ZM0 9.33333H6.66667V12H0V9.33333Z" fill="#ED234B"/>
</svg>
