<svg width="24" height="24" viewBox="0 0 24 24" fill="none" xmlns="http://www.w3.org/2000/svg">
<path d="M6.34921 22.5888L1.35438e-05 24L1.41121 17.6508C0.481852 15.9125 -0.00295422 13.9712 1.35438e-05 12C1.35438e-05 5.3724 5.37241 0 12 0C18.6276 0 24 5.3724 24 12C24 18.6276 18.6276 24 12 24C10.0288 24.003 8.08755 23.5181 6.34921 22.5888ZM6.69721 20.0532L7.48081 20.4732C8.87107 21.2162 10.4237 21.6033 12 21.6C13.8987 21.6 15.7548 21.037 17.3335 19.9821C18.9122 18.9272 20.1426 17.4279 20.8692 15.6738C21.5958 13.9196 21.786 11.9893 21.4155 10.1271C21.0451 8.26491 20.1308 6.55436 18.7882 5.21177C17.4456 3.86919 15.7351 2.95488 13.8729 2.58446C12.0107 2.21404 10.0804 2.40415 8.32625 3.13075C6.57208 3.85736 5.07276 5.08781 4.0179 6.66652C2.96304 8.24523 2.40001 10.1013 2.40001 12C2.40001 13.6008 2.79001 15.1416 3.52801 16.5192L3.94681 17.3028L3.16081 20.8392L6.69721 20.0532ZM6.00001 12H8.40001C8.40001 12.9548 8.77929 13.8704 9.45442 14.5456C10.1296 15.2207 11.0452 15.6 12 15.6C12.9548 15.6 13.8705 15.2207 14.5456 14.5456C15.2207 13.8704 15.6 12.9548 15.6 12H18C18 13.5913 17.3679 15.1174 16.2426 16.2426C15.1174 17.3678 13.5913 18 12 18C10.4087 18 8.88259 17.3678 7.75737 16.2426C6.63215 15.1174 6.00001 13.5913 6.00001 12Z" fill="white"/>
</svg>
