<svg width="138" height="138" viewBox="0 0 138 138" fill="none" xmlns="http://www.w3.org/2000/svg">
<circle cx="69" cy="69" r="68" fill="white" stroke="#ED234B" stroke-width="2"/>
<g clip-path="url(#clip0_1122_3147)">
<path d="M40 52.6664V93.6869C40 94.6421 40.7743 95.4164 41.7295 95.4164H95.2705C96.2257 95.4164 97 94.6421 97 93.6869V52.6664L82.332 48.708L40 52.6664Z" fill="#F1F4F6"/>
<path d="M92.4123 47.916V84.3693C92.4123 89.2034 88.4935 93.1222 83.6594 93.1222H40V93.6865C40 94.6417 40.7743 95.416 41.7295 95.416H95.2705C96.2257 95.416 97 94.6417 97 93.6865V52.6661L92.4123 47.916Z" fill="#DFEAEF"/>
<path d="M48.666 51.567L50.3359 51.3553V95.4159H48.666V51.567ZM59.8356 50.1507L58.1656 50.3625V95.4159H59.8356V50.1507ZM69.3352 48.9461L67.6653 49.1579V95.4159H69.3352V48.9461ZM78.8348 48.7081C78.8348 48.2469 78.4611 47.8732 77.9999 47.8732C77.5386 47.8732 77.1649 48.2469 77.1649 48.7081V95.4159H78.8348V48.7081ZM88.3345 48.708C88.3345 48.2468 87.9607 47.873 87.4995 47.873C87.0383 47.873 86.6645 48.2468 86.6645 48.708V95.4159H88.3345V48.708Z" fill="#DFEAEF"/>
<path d="M58.166 93.1221H59.8359V95.4159H58.166V93.1221Z" fill="#D0E2E7"/>
<path d="M48.666 93.1221H50.3359V95.4159H48.666V93.1221Z" fill="#D0E2E7"/>
<path d="M86.6641 92.5929V95.4164H88.334V91.7705C87.8121 92.1009 87.2529 92.3776 86.6641 92.5929Z" fill="#D0E2E7"/>
<path d="M77.1641 93.1221H78.834V95.4159H77.1641V93.1221Z" fill="#D0E2E7"/>
<path d="M67.666 93.1221H69.3359V95.4159H67.666V93.1221Z" fill="#D0E2E7"/>
<path d="M95.2705 44.75H41.7295C40.7743 44.75 40 45.5243 40 46.4795V52.6667H97V46.4795C97 45.5243 96.2257 44.75 95.2705 44.75V44.75Z" fill="#ED234B"/>
<path d="M54.1263 62.1668H43.2924C43.2237 62.1668 43.168 62.111 43.168 62.0423V57.5415C43.168 57.4728 43.2237 57.417 43.2924 57.417H54.1263C54.195 57.417 54.2508 57.4728 54.2508 57.5415V62.0423C54.2508 62.111 54.1951 62.1668 54.1263 62.1668Z" fill="#9BD069"/>
<path d="M58.8757 66.9158H46.4584C46.3898 66.9158 46.334 66.8601 46.334 66.7914V62.2905C46.334 62.2218 46.3898 62.166 46.4584 62.166H58.8757C58.9443 62.166 59.0001 62.2218 59.0001 62.2905V66.7914C59.0001 66.8601 58.9445 66.9158 58.8757 66.9158Z" fill="#8BC852"/>
<path d="M63.625 71.6658H49.6245C49.5558 71.6658 49.5 71.6101 49.5 71.5414V67.0405C49.5 66.9718 49.5558 66.916 49.6245 66.916H63.625C63.6937 66.916 63.7494 66.9718 63.7494 67.0405V71.5414C63.7494 71.6101 63.6937 71.6658 63.625 71.6658Z" fill="#9BD069"/>
<path d="M82.6248 76.4158H63.75V71.7905C63.75 71.7218 63.8058 71.666 63.8745 71.666H82.6248C82.6935 71.666 82.7493 71.7218 82.7493 71.7905V76.2914C82.7493 76.3601 82.6935 76.4158 82.6248 76.4158V76.4158Z" fill="#4073C8"/>
<path d="M73.1252 81.1658H63.8745C63.8058 81.1658 63.75 81.11 63.75 81.0413V76.416H73.2496V81.0413C73.2496 81.11 73.1939 81.1658 73.1252 81.1658Z" fill="#3B66C1"/>
<path d="M92.249 85.9158H81.2905C81.2218 85.9158 81.166 85.86 81.166 85.7913V81.2905C81.166 81.2218 81.2218 81.166 81.2905 81.166H92.1244C92.1931 81.166 92.2488 81.2218 92.2488 81.2905V85.9158H92.249Z" fill="#E28424"/>
<path d="M92.1239 90.6648H84.4565C84.3878 90.6648 84.332 90.6091 84.332 90.5404V85.915H92.2484V90.5404C92.2484 90.6091 92.1926 90.6648 92.1239 90.6648V90.6648Z" fill="#DD6938"/>
<path d="M92.2489 90.5407V86.0605C91.8984 87.851 91.0021 89.446 89.7402 90.6652H92.1243C92.1931 90.6652 92.2489 90.6094 92.2489 90.5407V90.5407Z" fill="#DD542E"/>
<path d="M47.7934 47.9164H44.8734C44.8052 47.9164 44.75 47.8611 44.75 47.793V41.7064C44.75 41.6382 44.8052 41.583 44.8734 41.583H47.7934C47.8615 41.583 47.9167 41.6382 47.9167 41.7064V47.7931C47.9167 47.8611 47.8615 47.9164 47.7934 47.9164V47.9164Z" fill="#D0E2E7"/>
<path d="M58.8774 47.9164H55.9573C55.8892 47.9164 55.834 47.8611 55.834 47.793V41.7064C55.834 41.6382 55.8892 41.583 55.9573 41.583H58.8774C58.9455 41.583 59.0007 41.6382 59.0007 41.7064V47.7931C59.0007 47.8611 58.9455 47.9164 58.8774 47.9164V47.9164Z" fill="#D0E2E7"/>
<path d="M69.9594 47.9164H67.0394C66.9712 47.9164 66.916 47.8611 66.916 47.793V41.7064C66.916 41.6382 66.9712 41.583 67.0394 41.583H69.9594C70.0275 41.583 70.0827 41.6382 70.0827 41.7064V47.7931C70.0826 47.8611 70.0274 47.9164 69.9594 47.9164V47.9164Z" fill="#D0E2E7"/>
<path d="M81.0434 47.9164H78.1234C78.0552 47.9164 78 47.8611 78 47.793V41.7064C78 41.6382 78.0552 41.583 78.1234 41.583H81.0434C81.1115 41.583 81.1667 41.6382 81.1667 41.7064V47.7931C81.1667 47.8611 81.1115 47.9164 81.0434 47.9164V47.9164Z" fill="#D0E2E7"/>
<path d="M92.1274 47.9164H89.2073C89.1392 47.9164 89.084 47.8611 89.084 47.793V41.7064C89.084 41.6382 89.1392 41.583 89.2073 41.583H92.1274C92.1955 41.583 92.2507 41.6382 92.2507 41.7064V47.7931C92.2506 47.8611 92.1954 47.9164 92.1274 47.9164V47.9164Z" fill="#D0E2E7"/>
</g>
<defs>
<clipPath id="clip0_1122_3147">
<rect width="57" height="57" fill="white" transform="translate(40 40)"/>
</clipPath>
</defs>
</svg>
