<svg width="138" height="138" viewBox="0 0 138 138" fill="none" xmlns="http://www.w3.org/2000/svg">
<circle cx="69" cy="69" r="68" fill="white" stroke="#ED234B" stroke-width="2"/>
<path d="M67.5391 37.4609C49.5684 37.4609 35 52.0293 35 70C35 74.7071 36.0008 79.1801 37.7994 83.2195L58.4622 101.255C61.3436 102.09 64.3889 102.54 67.5396 102.54C85.5103 102.54 100.079 87.9712 100.079 70C100.079 52.0293 85.5103 37.4609 67.5391 37.4609V37.4609Z" fill="#ED234B"/>
<path d="M86.2097 99.3756V84.9504C86.2097 83.8759 85.3387 83.0049 84.2637 83.0049H48.1797C49.2541 83.0049 50.1252 83.8759 50.1252 84.9504V97.4913C52.7493 99.1566 55.6276 100.458 58.689 101.321H84.2637C85.3387 101.321 86.2097 100.45 86.2097 99.3756V99.3756Z" fill="#E6FCFF"/>
<path d="M57.6172 99.3756V84.9504C57.6172 83.8759 58.4882 83.0049 59.5632 83.0049H48.1797C49.2541 83.0049 50.1252 83.8759 50.1252 84.9504V97.4913C52.7493 99.1566 55.6276 100.458 58.689 101.321H59.5632C58.4882 101.321 57.6172 100.45 57.6172 99.3756V99.3756Z" fill="#CCEBFF"/>
<path d="M54.9183 91.4331C54.329 91.4331 53.8512 90.9563 53.8496 90.3669C53.8486 89.7771 54.3259 89.2977 54.9163 89.2961L76.8054 89.2588H76.8075C77.3969 89.2588 77.8747 89.7356 77.8762 90.3249C77.8773 90.9153 77.4 91.3947 76.8101 91.3957L54.9209 91.4331C54.9199 91.4331 54.9189 91.4331 54.9183 91.4331V91.4331Z" fill="#B8DFF4"/>
<path d="M54.9295 95.9569C54.3407 95.9569 53.8624 95.4802 53.8613 94.8908C53.8598 94.3009 54.3371 93.8216 54.9275 93.82L72.84 93.792H72.8426C73.4315 93.792 73.9098 94.2688 73.9108 94.8581C73.9124 95.448 73.4351 95.9274 72.8447 95.9289L54.9321 95.9569H54.9295Z" fill="#B8DFF4"/>
<path d="M92.6607 60.8418H56.5762C57.6506 60.8418 58.5222 61.7129 58.5222 62.7873V77.212C58.5222 78.2869 57.6506 79.158 56.5762 79.158H92.6607C93.7351 79.158 94.6062 78.2869 94.6062 77.212V62.7873C94.6062 61.7129 93.7351 60.8418 92.6607 60.8418Z" fill="#E6FCFF"/>
<path d="M66.0142 77.212V62.7873C66.0142 61.7129 66.8852 60.8418 67.9597 60.8418H56.5762C57.6506 60.8418 58.5222 61.7129 58.5222 62.7873V77.212C58.5222 78.2864 57.6506 79.1575 56.5762 79.1575H67.9597C66.8852 79.1575 66.0142 78.2869 66.0142 77.212Z" fill="#CCEBFF"/>
<path d="M63.2635 69.2512C62.6747 69.2512 62.1964 68.7744 62.1953 68.185C62.1938 67.5952 62.6711 67.1158 63.2614 67.1142L86.7724 67.0732H86.775C87.3638 67.0732 87.8421 67.55 87.8437 68.1394C87.8447 68.7298 87.3674 69.2091 86.777 69.2102L63.2661 69.2512C63.2656 69.2512 63.2646 69.2512 63.2635 69.2512V69.2512Z" fill="#B8DFF4"/>
<path d="M81.1825 73.7512H63.2699C62.6795 73.7512 62.2012 73.2729 62.2012 72.6825C62.2012 72.0926 62.6795 71.6143 63.2699 71.6143H81.1825C81.7723 71.6143 82.2507 72.0926 82.2507 72.6825C82.2507 73.2729 81.7723 73.7512 81.1825 73.7512V73.7512Z" fill="#B8DFF4"/>
<path d="M101.055 38.6797H64.9707C66.0457 38.6797 66.9167 39.5508 66.9167 40.6252V55.0499C66.9167 56.1243 66.0457 56.9959 64.9707 56.9959H101.055C102.13 56.9959 103.001 56.1243 103.001 55.0499V40.6252C103.001 39.5508 102.13 38.6797 101.055 38.6797V38.6797Z" fill="#E6FCFF"/>
<path d="M74.4087 55.0499V40.6252C74.4087 39.5508 75.2798 38.6797 76.3542 38.6797H64.9707C66.0451 38.6797 66.9167 39.5508 66.9167 40.6252V55.0499C66.9167 56.1243 66.0451 56.9959 64.9707 56.9959H76.3542C75.2798 56.9954 74.4087 56.1243 74.4087 55.0499Z" fill="#CCEBFF"/>
<path d="M67.3427 55.0499V40.6252C67.3427 39.5508 66.4716 38.6797 65.3972 38.6797H50.6472C49.5722 38.6797 48.7012 39.5508 48.7012 40.6252V55.0499C48.7012 56.1243 49.5728 56.9959 50.6472 56.9959H65.3972C66.4721 56.9954 67.3427 56.1243 67.3427 55.0499Z" fill="#FFE600"/>
<path d="M56.8987 55.316C56.8987 54.3661 57.6188 53.5843 58.5428 53.4867V42.2065C57.6188 42.1084 56.8987 41.3271 56.8987 40.3772C56.8987 39.6125 57.3651 38.9572 58.0287 38.6797H50.6467C49.5722 38.6797 48.7012 39.5508 48.7012 40.6252V55.0499C48.7012 56.1243 49.5722 56.9959 50.6467 56.9959H57.9897C57.347 56.7085 56.8987 56.0652 56.8987 55.316Z" fill="#F9CE00"/>
<path d="M63.0758 42.0742H52.8829C52.5151 42.0742 52.2168 42.3725 52.2168 42.7409V52.9332C52.2168 53.3015 52.5151 53.5999 52.8829 53.5999H63.0758C63.4436 53.5999 63.7419 53.3015 63.7419 52.9332V42.7409C63.7419 42.3725 63.4436 42.0742 63.0758 42.0742Z" fill="#F9CE00"/>
<path d="M57.3825 52.9332V42.7409C57.3825 42.3725 57.6808 42.0742 58.0491 42.0742H52.8829C52.5151 42.0742 52.2168 42.3725 52.2168 42.7409V52.9332C52.2168 53.3015 52.5151 53.5999 52.8829 53.5999H58.0491C57.6808 53.5999 57.3825 53.3015 57.3825 52.9332Z" fill="#F4B500"/>
<path d="M71.6078 47.0699C71.0184 47.0699 70.5406 46.5932 70.5391 46.0038C70.538 45.4134 71.0153 44.9341 71.6052 44.933L98.4442 44.8848H98.4463C99.0362 44.8848 99.514 45.3615 99.5155 45.9509C99.5166 46.5408 99.0393 47.0201 98.4494 47.0217L71.6104 47.0699C71.6099 47.0699 71.6083 47.0699 71.6078 47.0699V47.0699Z" fill="#B8DFF4"/>
<path d="M89.577 51.5881H71.6644C71.074 51.5881 70.5957 51.1098 70.5957 50.5199C70.5957 49.93 71.074 49.4512 71.6644 49.4512H89.577C90.1669 49.4512 90.6452 49.93 90.6452 50.5199C90.6452 51.1098 90.1669 51.5881 89.577 51.5881V51.5881Z" fill="#B8DFF4"/>
<path d="M56.6057 50.0032L55.0218 48.4193C54.6047 48.0017 54.6047 47.3252 55.0218 46.9081C55.4395 46.4904 56.1154 46.4904 56.5331 46.9081L57.3616 47.7366L59.4269 45.6712C59.8441 45.2541 60.5206 45.2541 60.9382 45.6712C61.3553 46.0889 61.3553 46.7654 60.9382 47.1825L58.1175 50.0032C57.6999 50.4203 57.0233 50.4203 56.6057 50.0032Z" fill="#E6FCFF"/>
<path d="M58.9481 77.212V62.7873C58.9481 61.7129 58.0771 60.8418 57.0026 60.8418H42.2521C41.1777 60.8418 40.3066 61.7129 40.3066 62.7873V77.212C40.3066 78.2869 41.1777 79.158 42.2521 79.158H57.0026C58.0771 79.1575 58.9481 78.2864 58.9481 77.212Z" fill="#A5C013"/>
<path d="M48.5042 77.4781C48.5042 76.5282 49.2243 75.7469 50.1483 75.6488V64.3686C49.2243 64.2711 48.5042 63.4897 48.5042 62.5393C48.5042 61.7751 48.9706 61.1199 49.6341 60.8418H42.2521C41.1777 60.8418 40.3066 61.7129 40.3066 62.7873V77.212C40.3066 78.2869 41.1777 79.158 42.2521 79.158H49.5947C48.9524 78.8706 48.5042 78.2273 48.5042 77.4781Z" fill="#8DAE16"/>
<path d="M54.6812 64.2373H44.4884C44.1206 64.2373 43.8223 64.5356 43.8223 64.9034V75.0958C43.8223 75.4641 44.1206 75.7624 44.4884 75.7624H54.6807C55.0491 75.7624 55.3474 75.4641 55.3474 75.0958V64.9034C55.3474 64.5356 55.0491 64.2373 54.6812 64.2373V64.2373Z" fill="#8DAE16"/>
<path d="M48.9879 75.0958V64.9034C48.9879 64.5356 49.2863 64.2373 49.6541 64.2373H44.4884C44.1206 64.2373 43.8223 64.5356 43.8223 64.9034V75.0958C43.8223 75.4641 44.1206 75.7624 44.4884 75.7624H49.6541C49.2863 75.7624 48.9879 75.4641 48.9879 75.0958Z" fill="#749C18"/>
<path d="M48.2116 72.1663L46.6277 70.5824C46.21 70.1648 46.21 69.4883 46.6277 69.0711C47.0448 68.6535 47.7213 68.6535 48.1389 69.0711L48.9669 69.8997L51.0323 67.8343C51.4499 67.4172 52.1259 67.4172 52.5435 67.8343C52.9607 68.252 52.9607 68.9285 52.5435 69.3456L49.7228 72.1663C49.3057 72.5834 48.6287 72.5834 48.2116 72.1663Z" fill="#E6FCFF"/>
<path d="M48.6076 83.0049H37.7051C40.3831 89.1402 44.8967 94.2893 50.5531 97.7585V84.9509C50.5531 83.8759 49.6821 83.0049 48.6076 83.0049V83.0049Z" fill="#FE4675"/>
<path d="M46.2865 86.4004H39.4316C41.3989 89.7648 43.9525 92.7448 46.9532 95.1992V87.0665C46.9532 86.6987 46.6549 86.4004 46.2865 86.4004Z" fill="#EC3969"/>
</svg>
