<svg width="60" height="60" viewBox="0 0 60 60" fill="none" xmlns="http://www.w3.org/2000/svg">
<ellipse cx="16.7213" cy="41.3792" rx="16.7213" ry="17.5862" fill="#FFEBF0"/>
<g clip-path="url(#clip0_1116_2779)">
<path d="M59.4289 17.2791C59.4289 17.0787 58.8575 12.6714 57.0479 10.5679C54.8574 8.06379 52.4764 7.76329 51.2383 7.66304H50.8574C43.1429 7.06204 31.6188 6.96191 31.4283 6.96191C31.3331 6.96191 19.7137 7.06204 12.0944 7.86342H11.8087C10.4751 7.96354 8.09417 8.26404 5.99891 10.7682C4.09406 12.8717 3.52262 17.3792 3.52262 17.5796C3.52262 17.5796 2.95117 22.6881 2.95117 27.7966V32.5045C2.95117 37.5128 3.52262 42.6213 3.52262 42.7215C3.52262 42.9218 4.09406 47.3291 5.90359 49.4326C7.90365 51.8366 10.2846 52.1371 11.8086 52.3375C12.0943 52.3375 12.2848 52.3375 12.5705 52.4376C16.9515 52.8382 30.8567 53.0386 31.4282 53.0386C31.5234 53.0386 43.1428 53.0386 50.8572 52.1371H51.143C52.4764 52.037 54.8574 51.7365 56.9526 49.2322C58.8575 47.1287 59.4289 42.6212 59.4289 42.4209C59.4289 42.4209 60.0004 37.3124 60.0004 32.2038V27.4961C60.0004 22.4877 59.4289 17.3792 59.4289 17.2791ZM58.0955 32.4042C58.0955 37.4126 57.5241 42.4209 57.5241 42.4209C57.3335 43.5227 56.7621 46.728 55.524 48.1304C53.9049 50.1337 52.0001 50.334 50.9525 50.4342H50.6667C43.0474 51.0352 31.5234 51.0352 31.4282 51.0352C31.333 51.0352 17.0469 50.8349 12.8562 50.3341C12.5705 50.3341 12.2848 50.234 11.9991 50.234C10.6657 50.1339 8.76093 49.8334 7.237 48.0304C6.09411 46.7282 5.42747 43.5228 5.33215 42.421C5.33215 42.3208 4.76071 37.3125 4.76071 32.4043V27.6965C4.76071 22.6881 5.33215 17.6798 5.33215 17.6798C5.42735 16.5779 6.09411 13.3727 7.237 11.9703C8.95133 9.96692 10.7609 9.76655 11.9038 9.66642H12.1895C19.8088 9.06542 31.3328 8.96529 31.428 8.96529C31.5233 8.96529 43.0474 9.06542 50.6666 9.66642H51.0475C52.0952 9.76655 54 9.96692 55.6191 11.9703C56.762 13.3727 57.3334 16.5779 57.5239 17.6798C57.6192 17.8802 58.0954 22.8884 58.0954 27.6965V32.4042H58.0955Z" fill="#ED234B"/>
<path d="M43.3329 30.1008L25.2372 18.9823C24.9515 18.7819 24.5706 18.7819 24.2848 18.9823C23.9991 19.1827 23.8086 19.4832 23.8086 19.8838V41.62C23.8086 42.0206 23.9991 42.3211 24.2848 42.5215C24.4754 42.6216 24.5706 42.6216 24.7611 42.6216C24.9516 42.6216 25.0468 42.6216 25.2373 42.5215L43.333 31.9038C43.6187 31.7035 43.8092 31.403 43.8092 31.0023C43.8092 30.6017 43.6186 30.3011 43.3329 30.1008ZM25.7134 39.9171V21.5866L40.9519 31.0022L25.7134 39.9171Z" fill="#ED234B"/>
</g>
<defs>
<clipPath id="clip0_1116_2779">
<rect width="57.0492" height="60" fill="white" transform="translate(2.95117)"/>
</clipPath>
</defs>
</svg>
