<svg width="18" height="18" viewBox="0 0 18 18" fill="none" xmlns="http://www.w3.org/2000/svg">
<path d="M15.75 2.25C15.9489 2.25 16.1397 2.32902 16.2803 2.46967C16.421 2.61032 16.5 2.80109 16.5 3V8.25H15V3.75H3V14.25H7.5V15.75H2.25C2.05109 15.75 1.86032 15.671 1.71967 15.5303C1.57902 15.3897 1.5 15.1989 1.5 15V3C1.5 2.80109 1.57902 2.61032 1.71967 2.46967C1.86032 2.32902 2.05109 2.25 2.25 2.25H15.75ZM15.75 9.75C15.9489 9.75 16.1397 9.82902 16.2803 9.96967C16.421 10.1103 16.5 10.3011 16.5 10.5V15C16.5 15.1989 16.421 15.3897 16.2803 15.5303C16.1397 15.671 15.9489 15.75 15.75 15.75H9.75C9.55109 15.75 9.36032 15.671 9.21967 15.5303C9.07902 15.3897 9 15.1989 9 15V10.5C9 10.3011 9.07902 10.1103 9.21967 9.96967C9.36032 9.82902 9.55109 9.75 9.75 9.75H15.75ZM8.625 5.25L7.09275 6.78225L8.78025 8.46975L7.71975 9.53025L6.03225 7.84275L4.5 9.375V5.25H8.625Z" fill="#ED234B"/>
</svg>
