<svg width="20" height="20" viewBox="0 0 20 20" fill="none" xmlns="http://www.w3.org/2000/svg">
<path d="M17.2158 8.33333C16.8227 7.22131 16.0491 6.28408 15.0317 5.68728C14.0143 5.09049 12.8188 4.87255 11.6563 5.07201C10.4938 5.27146 9.43923 5.87545 8.67899 6.77723C7.91875 7.67901 7.50179 8.82052 7.50179 10C7.50179 11.1795 7.91875 12.321 8.67899 13.2228C9.43923 14.1245 10.4938 14.7285 11.6563 14.928C12.8188 15.1274 14.0143 14.9095 15.0317 14.3127C16.0491 13.7159 16.8227 12.7787 17.2158 11.6667H17.5V16.6667C17.5 16.8877 17.4122 17.0996 17.2559 17.2559C17.0996 17.4122 16.8877 17.5 16.6667 17.5H3.33333C3.11232 17.5 2.90036 17.4122 2.74408 17.2559C2.5878 17.0996 2.5 16.8877 2.5 16.6667V3.33333C2.5 3.11232 2.5878 2.90036 2.74408 2.74408C2.90036 2.5878 3.11232 2.5 3.33333 2.5H16.6667C16.8877 2.5 17.0996 2.5878 17.2559 2.74408C17.4122 2.90036 17.5 3.11232 17.5 3.33333V8.33333H17.2158ZM4.16667 5V7.5H5.83333V5H4.16667ZM12.5 13.3333C11.6159 13.3333 10.7681 12.9821 10.143 12.357C9.51786 11.7319 9.16667 10.8841 9.16667 10C9.16667 9.11594 9.51786 8.2681 10.143 7.64298C10.7681 7.01786 11.6159 6.66667 12.5 6.66667C13.3841 6.66667 14.2319 7.01786 14.857 7.64298C15.4821 8.2681 15.8333 9.11594 15.8333 10C15.8333 10.8841 15.4821 11.7319 14.857 12.357C14.2319 12.9821 13.3841 13.3333 12.5 13.3333ZM12.5 11.6667C12.942 11.6667 13.366 11.4911 13.6785 11.1785C13.9911 10.866 14.1667 10.442 14.1667 10C14.1667 9.55797 13.9911 9.13405 13.6785 8.82149C13.366 8.50893 12.942 8.33333 12.5 8.33333C12.058 8.33333 11.634 8.50893 11.3215 8.82149C11.0089 9.13405 10.8333 9.55797 10.8333 10C10.8333 10.442 11.0089 10.866 11.3215 11.1785C11.634 11.4911 12.058 11.6667 12.5 11.6667Z" fill="#ED234B"/>
</svg>
