<svg width="50" height="50" viewBox="0 0 50 50" fill="none" xmlns="http://www.w3.org/2000/svg">
<path d="M25.0013 45.8346C13.4951 45.8346 4.16797 36.5076 4.16797 25.0013C4.16797 13.4951 13.4951 4.16797 25.0013 4.16797C36.5076 4.16797 45.8346 13.4951 45.8346 25.0013C45.8346 36.5076 36.5076 45.8346 25.0013 45.8346ZM25.0013 41.668C29.4216 41.668 33.6608 39.912 36.7864 36.7864C39.912 33.6608 41.668 29.4216 41.668 25.0013C41.668 20.581 39.912 16.3418 36.7864 13.2162C33.6608 10.0906 29.4216 8.33464 25.0013 8.33464C20.581 8.33464 16.3418 10.0906 13.2162 13.2162C10.0906 16.3418 8.33464 20.581 8.33464 25.0013C8.33464 29.4216 10.0906 33.6608 13.2162 36.7864C16.3418 39.912 20.581 41.668 25.0013 41.668V41.668ZM22.9242 33.3346L14.0846 24.4951L17.0305 21.5492L22.9242 27.443L34.7076 15.6576L37.6555 18.6034L22.9242 33.3346Z" fill="white"/>
</svg>
