<svg width="50" height="50" viewBox="0 0 50 50" fill="none" xmlns="http://www.w3.org/2000/svg">
<path d="M43.7513 6.25C44.3038 6.25 44.8337 6.46949 45.2244 6.86019C45.6151 7.25089 45.8346 7.7808 45.8346 8.33333V22.9167H41.668V10.4167H8.33464V39.5833H20.8346V43.75H6.2513C5.69877 43.75 5.16886 43.5305 4.77816 43.1398C4.38746 42.7491 4.16797 42.2192 4.16797 41.6667V8.33333C4.16797 7.7808 4.38746 7.25089 4.77816 6.86019C5.16886 6.46949 5.69877 6.25 6.2513 6.25H43.7513ZM43.7513 27.0833C44.3038 27.0833 44.8337 27.3028 45.2244 27.6935C45.6151 28.0842 45.8346 28.6141 45.8346 29.1667V41.6667C45.8346 42.2192 45.6151 42.7491 45.2244 43.1398C44.8337 43.5305 44.3038 43.75 43.7513 43.75H27.0846C26.5321 43.75 26.0022 43.5305 25.6115 43.1398C25.2208 42.7491 25.0013 42.2192 25.0013 41.6667V29.1667C25.0013 28.6141 25.2208 28.0842 25.6115 27.6935C26.0022 27.3028 26.5321 27.0833 27.0846 27.0833H43.7513ZM23.9596 14.5833L19.7034 18.8396L24.3909 23.5271L21.4451 26.4729L16.7576 21.7854L12.5013 26.0417V14.5833H23.9596Z" fill="white"/>
</svg>
