<svg width="50" height="50" viewBox="0 0 50 50" fill="none" xmlns="http://www.w3.org/2000/svg">
<path d="M43.0396 20.8333C42.0567 18.0533 40.1226 15.7102 37.5792 14.2182C35.0359 12.7262 32.0469 12.1814 29.1407 12.68C26.2345 13.1786 23.5981 14.6886 21.6975 16.9431C19.7969 19.1975 18.7545 22.0513 18.7545 25C18.7545 27.9487 19.7969 30.8025 21.6975 33.0569C23.5981 35.3114 26.2345 36.8214 29.1407 37.32C32.0469 37.8186 35.0359 37.2738 37.5792 35.7818C40.1226 34.2898 42.0567 31.9467 43.0396 29.1667H43.75V41.6667C43.75 42.2192 43.5305 42.7491 43.1398 43.1398C42.7491 43.5305 42.2192 43.75 41.6667 43.75H8.33333C7.7808 43.75 7.25089 43.5305 6.86019 43.1398C6.46949 42.7491 6.25 42.2192 6.25 41.6667V8.33333C6.25 7.7808 6.46949 7.25089 6.86019 6.86019C7.25089 6.46949 7.7808 6.25 8.33333 6.25H41.6667C42.2192 6.25 42.7491 6.46949 43.1398 6.86019C43.5305 7.25089 43.75 7.7808 43.75 8.33333V20.8333H43.0396ZM10.4167 12.5V18.75H14.5833V12.5H10.4167ZM31.25 33.3333C29.0399 33.3333 26.9202 32.4554 25.3574 30.8926C23.7946 29.3298 22.9167 27.2101 22.9167 25C22.9167 22.7899 23.7946 20.6702 25.3574 19.1074C26.9202 17.5446 29.0399 16.6667 31.25 16.6667C33.4601 16.6667 35.5798 17.5446 37.1426 19.1074C38.7054 20.6702 39.5833 22.7899 39.5833 25C39.5833 27.2101 38.7054 29.3298 37.1426 30.8926C35.5798 32.4554 33.4601 33.3333 31.25 33.3333ZM31.25 29.1667C32.3551 29.1667 33.4149 28.7277 34.1963 27.9463C34.9777 27.1649 35.4167 26.1051 35.4167 25C35.4167 23.8949 34.9777 22.8351 34.1963 22.0537C33.4149 21.2723 32.3551 20.8333 31.25 20.8333C30.1449 20.8333 29.0851 21.2723 28.3037 22.0537C27.5223 22.8351 27.0833 23.8949 27.0833 25C27.0833 26.1051 27.5223 27.1649 28.3037 27.9463C29.0851 28.7277 30.1449 29.1667 31.25 29.1667Z" fill="white"/>
</svg>
