<svg width="32" height="32" viewBox="0 0 32 32" fill="none" xmlns="http://www.w3.org/2000/svg">
<path d="M18.5614 15.9986C18.5614 14.5847 17.4153 13.4386 16.0014 13.4386C14.5876 13.4386 13.4414 14.5847 13.4414 15.9986C13.4414 17.4124 14.5876 18.5586 16.0014 18.5586C17.4153 18.5586 18.5614 17.4124 18.5614 15.9986Z" fill="#222222"/>
<path d="M18.5614 7.83843C18.5614 6.42458 17.4153 5.27843 16.0014 5.27843C14.5876 5.27843 13.4414 6.42458 13.4414 7.83843C13.4414 9.25228 14.5876 10.3984 16.0014 10.3984C17.4153 10.3984 18.5614 9.25228 18.5614 7.83843Z" fill="#222222"/>
<path d="M18.5614 24.1587C18.5614 22.7449 17.4153 21.5987 16.0014 21.5987C14.5876 21.5987 13.4414 22.7449 13.4414 24.1587C13.4414 25.5726 14.5876 26.7188 16.0014 26.7188C17.4153 26.7188 18.5614 25.5726 18.5614 24.1587Z" fill="#222222"/>
</svg>
