<svg width="24" height="24" viewBox="0 0 42 42" fill="none" xmlns="http://www.w3.org/2000/svg">
    <path d="M12.7593 36.442L3.50002 38.5L5.55802 29.2407C4.2027 26.7057 3.49569 23.8746 3.50002 21C3.50002 11.3348 11.3348 3.5 21 3.5C30.6653 3.5 38.5 11.3348 38.5 21C38.5 30.6652 30.6653 38.5 21 38.5C18.1254 38.5043 15.2943 37.7973 12.7593 36.442ZM13.2668 32.7443L14.4095 33.3568C16.437 34.4402 18.7012 35.0048 21 35C23.769 35 26.4757 34.1789 28.778 32.6406C31.0803 31.1022 32.8747 28.9157 33.9343 26.3576C34.994 23.7994 35.2712 20.9845 34.731 18.2687C34.1908 15.553 32.8575 13.0584 30.8995 11.1005C28.9416 9.14257 26.447 7.8092 23.7313 7.26901C21.0156 6.72881 18.2006 7.00606 15.6425 8.06569C13.0843 9.12531 10.8978 10.9197 9.35945 13.222C7.82111 15.5243 7.00002 18.2311 7.00002 21C7.00002 23.3345 7.56877 25.5815 8.64502 27.5905L9.25577 28.7333L8.10952 33.8905L13.2668 32.7443ZM12.25 21H15.75C15.75 22.3924 16.3031 23.7277 17.2877 24.7123C18.2723 25.6969 19.6076 26.25 21 26.25C22.3924 26.25 23.7278 25.6969 24.7123 24.7123C25.6969 23.7277 26.25 22.3924 26.25 21H29.75C29.75 23.3206 28.8281 25.5462 27.1872 27.1872C25.5463 28.8281 23.3207 29.75 21 29.75C18.6794 29.75 16.4538 28.8281 14.8128 27.1872C13.1719 25.5462 12.25 23.3206 12.25 21Z"
          fill="#FFFFFF"/>
</svg>
