<svg width="24" height="24" viewBox="0 0 42 42" fill="none" xmlns="http://www.w3.org/2000/svg">
    <path d="M12.7593 36.442L3.50002 38.5L5.55802 29.2407C4.2027 26.7057 3.49569 23.8746 3.50002 21C3.50002 11.3348 11.3348 3.5 21 3.5C30.6653 3.5 38.5 11.3348 38.5 21C38.5 30.6652 30.6653 38.5 21 38.5C18.1254 38.5043 15.2943 37.7973 12.7593 36.442V36.442ZM12.25 21C12.25 23.3206 13.1719 25.5462 14.8128 27.1872C16.4538 28.8281 18.6794 29.75 21 29.75C23.3207 29.75 25.5463 28.8281 27.1872 27.1872C28.8281 25.5462 29.75 23.3206 29.75 21H26.25C26.25 22.3924 25.6969 23.7277 24.7123 24.7123C23.7278 25.6969 22.3924 26.25 21 26.25C19.6076 26.25 18.2723 25.6969 17.2877 24.7123C16.3031 23.7277 15.75 22.3924 15.75 21H12.25Z"
          fill="#ED234B"/>
</svg>
