<svg width="42" height="42" viewBox="0 0 42 42" xmlns="http://www.w3.org/2000/svg">
    <path d="M21.0003 38.5007L4.91426 22.4147C1.09926 17.9207 1.29876 11.1797 5.53201 6.94468C7.56204 4.9147 10.2846 3.72739 13.1535 3.62093C16.0223 3.51447 18.8254 4.49674 21.0003 6.37068C23.173 4.49674 25.9735 3.51308 28.8409 3.61682C31.7082 3.72056 34.4304 4.90403 36.4619 6.93008C38.4935 8.95613 39.6844 11.6751 39.796 14.5421C39.9075 17.4091 38.9315 20.2124 37.0635 22.3902L21.0003 38.5007ZM34.4088 20.1099C35.7017 18.6021 36.3772 16.6614 36.2998 14.6767C36.2223 12.692 35.3978 10.8098 33.9913 9.40728C32.5848 8.00478 30.7003 7.18557 28.7154 7.11379C26.7304 7.042 24.7916 7.72294 23.2875 9.02018L21.0003 10.9942L18.713 9.02018C17.2089 7.72294 15.2701 7.042 13.2852 7.11379C11.3002 7.18557 9.41571 8.00478 8.00923 9.40728C6.60274 10.8098 5.77819 12.692 5.70077 14.6767C5.62336 16.6614 6.2988 18.6021 7.59176 20.1099L7.79126 20.3409L21.0003 33.5517L34.2093 20.3409L34.4088 20.1099Z"
          fill="#ED234B"/>
</svg>
