<svg width="42" height="42" viewBox="0 0 42 42" fill="none" xmlns="http://www.w3.org/2000/svg">
<path d="M37.0629 22.3902L37.0856 22.4147L20.9996 38.5007L4.91364 22.4147L4.93639 22.3902C3.06838 20.2124 2.09236 17.4091 2.20392 14.5421C2.31548 11.6751 3.50637 8.95613 5.53796 6.93008C7.56954 4.90403 10.2917 3.72056 13.159 3.61682C16.0264 3.51308 18.827 4.49674 20.9996 6.37068C23.1723 4.49674 25.9729 3.51308 28.8402 3.61682C31.7075 3.72056 34.4297 4.90403 36.4613 6.93008C38.4929 8.95613 39.6838 11.6751 39.7954 14.5421C39.9069 17.4091 38.9309 20.2124 37.0629 22.3902V22.3902Z" fill="#ED234B"/>
</svg>
