<svg width="36" height="36" viewBox="0 0 36 36" fill="none" xmlns="http://www.w3.org/2000/svg">
    <path d="M18 4.5C26.6985 4.5 33.75 9.996 33.75 16.7775C33.75 23.5575 26.6985 29.0535 18 29.0535C17.1339 29.054 16.2686 28.9988 15.4095 28.8885L8.7975 33.213C8.046 33.6105 7.7805 33.567 8.0895 32.5935L9.4275 27.0765C5.1075 24.8865 2.25 21.0915 2.25 16.7775C2.25 9.9975 9.3015 4.5 18 4.5ZM26.8605 16.59L29.0655 14.454C29.1927 14.3219 29.2637 14.1455 29.2635 13.9621C29.2633 13.7786 29.1919 13.6024 29.0643 13.4706C28.9368 13.3388 28.763 13.2616 28.5797 13.2553C28.3964 13.2491 28.2178 13.3142 28.0815 13.437L25.1895 16.236V13.923C25.1895 13.7352 25.1149 13.5551 24.9821 13.4224C24.8494 13.2896 24.6693 13.215 24.4815 13.215C24.2937 13.215 24.1136 13.2896 23.9809 13.4224C23.8481 13.5551 23.7735 13.7352 23.7735 13.923V17.7585C23.747 17.8679 23.747 17.9821 23.7735 18.0915V20.25C23.7735 20.4378 23.8481 20.6179 23.9809 20.7506C24.1136 20.8834 24.2937 20.958 24.4815 20.958C24.6693 20.958 24.8494 20.8834 24.9821 20.7506C25.1149 20.6179 25.1895 20.4378 25.1895 20.25V18.2055L25.83 17.586L27.972 20.6355C28.0255 20.7116 28.0934 20.7765 28.172 20.8264C28.2505 20.8762 28.3381 20.9101 28.4298 20.9262C28.5214 20.9422 28.6153 20.94 28.7061 20.9197C28.7969 20.8994 28.8829 20.8615 28.959 20.808C29.0351 20.7545 29.1 20.6866 29.1499 20.608C29.1997 20.5295 29.2336 20.4419 29.2497 20.3502C29.2657 20.2586 29.2635 20.1647 29.2432 20.0739C29.2229 19.9831 29.185 19.8971 29.1315 19.821L26.8605 16.5885V16.59ZM22.4235 19.476H20.2335V13.9455C20.2251 13.7636 20.1469 13.5918 20.0152 13.4661C19.8835 13.3403 19.7084 13.2701 19.5262 13.2701C19.3441 13.2701 19.169 13.3403 19.0373 13.4661C18.9056 13.5918 18.8274 13.7636 18.819 13.9455V20.184C18.819 20.574 19.134 20.892 19.5255 20.892H22.4235C22.6113 20.892 22.7914 20.8174 22.9241 20.6846C23.0569 20.5519 23.1315 20.3718 23.1315 20.184C23.1315 19.9962 23.0569 19.8161 22.9241 19.6834C22.7914 19.5506 22.6113 19.476 22.4235 19.476ZM13.638 17.838L14.682 15.2775L15.639 17.838H13.638ZM17.4225 18.57L17.4255 18.546C17.4251 18.3676 17.3571 18.1961 17.235 18.066L15.666 13.866C15.6002 13.6659 15.4749 13.4905 15.3069 13.3635C15.1388 13.2364 14.936 13.1637 14.7255 13.155C14.5135 13.1541 14.3062 13.2177 14.1312 13.3375C13.9562 13.4573 13.8219 13.6275 13.746 13.8255L11.2545 19.938C11.2193 20.0241 11.2015 20.1162 11.2019 20.2092C11.2024 20.3022 11.2212 20.3942 11.2572 20.4799C11.2932 20.5657 11.3457 20.6435 11.4118 20.7089C11.4779 20.7743 11.5562 20.8261 11.6423 20.8612C11.7283 20.8964 11.8205 20.9143 11.9135 20.9138C12.0065 20.9134 12.0984 20.8946 12.1842 20.8586C12.2699 20.8226 12.3477 20.77 12.4131 20.704C12.4786 20.6379 12.5303 20.5596 12.5655 20.4735L13.0605 19.254H16.1655L16.614 20.454C16.6445 20.5437 16.6927 20.6264 16.7557 20.6971C16.8187 20.7678 16.8953 20.8252 16.9809 20.8658C17.0665 20.9064 17.1594 20.9294 17.254 20.9335C17.3487 20.9375 17.4432 20.9225 17.5319 20.8894C17.6207 20.8563 17.7019 20.8057 17.7707 20.7406C17.8396 20.6755 17.8947 20.5973 17.9327 20.5105C17.9708 20.4237 17.991 20.3302 17.9923 20.2355C17.9935 20.1408 17.9757 20.0467 17.94 19.959L17.4225 18.57ZM12.4395 13.953C12.4395 13.7655 12.3651 13.5856 12.2327 13.4529C12.1002 13.3202 11.9205 13.2454 11.733 13.245H6.8655C6.67773 13.245 6.49764 13.3196 6.36487 13.4524C6.23209 13.5851 6.1575 13.7652 6.1575 13.953C6.1575 14.1408 6.23209 14.3209 6.36487 14.4536C6.49764 14.5864 6.67773 14.661 6.8655 14.661H8.6055V20.265C8.6055 20.4528 8.68009 20.6329 8.81287 20.7656C8.94564 20.8984 9.12573 20.973 9.3135 20.973C9.50127 20.973 9.68136 20.8984 9.81413 20.7656C9.94691 20.6329 10.0215 20.4528 10.0215 20.265V14.661H11.7315C11.9193 14.661 12.0994 14.5864 12.2321 14.4536C12.3649 14.3209 12.4395 14.1408 12.4395 13.953Z"
          fill="#191600"/>
</svg>
