<svg width="26" height="26" viewBox="0 0 26 26" fill="none" xmlns="http://www.w3.org/2000/svg">
    <path d="M5.41667 19.5003H20.5833V11.9506C20.5833 7.74399 17.1882 4.33366 13 4.33366C8.81183 4.33366 5.41667 7.74399 5.41667 11.9506V19.5003ZM13 2.16699C18.3842 2.16699 22.75 6.54691 22.75 11.9506V21.667H3.25V11.9506C3.25 6.54691 7.61583 2.16699 13 2.16699ZM10.2917 22.7503H15.7083C15.7083 23.4686 15.423 24.1575 14.9151 24.6654C14.4072 25.1733 13.7183 25.4587 13 25.4587C12.2817 25.4587 11.5928 25.1733 11.0849 24.6654C10.577 24.1575 10.2917 23.4686 10.2917 22.7503Z"
          fill="white"/>
</svg>
