<svg width="25" height="26" viewBox="0 0 25 26" fill="none" xmlns="http://www.w3.org/2000/svg">
    <path d="M22.1131 20.4899C23.3963 18.946 24.2887 17.1158 24.715 15.1541C25.1412 13.1924 25.0887 11.1568 24.5619 9.21969C24.0351 7.28255 23.0495 5.50079 21.6884 4.02514C20.3273 2.54948 18.6309 1.42335 16.7426 0.741996C14.8542 0.0606427 12.8296 -0.155883 10.8399 0.110736C8.85014 0.377355 6.95391 1.11927 5.31158 2.27373C3.66924 3.42819 2.32912 4.96122 1.40457 6.74315C0.480019 8.52507 -0.00175357 10.5035 4.79597e-06 12.511C0.00067954 15.4293 1.02908 18.2541 2.90476 20.4899L2.88689 20.5051C2.94943 20.5801 3.02091 20.6444 3.08524 20.7186C3.16566 20.8106 3.25233 20.8973 3.33542 20.9866C3.5856 21.2583 3.84293 21.5192 4.11276 21.764C4.19497 21.839 4.27985 21.9087 4.36294 21.9802C4.64886 22.2268 4.94282 22.4609 5.2475 22.6789C5.28682 22.7057 5.32256 22.7406 5.36187 22.7683V22.7576C7.45453 24.2302 9.95095 25.0205 12.5098 25.0205C15.0687 25.0205 17.5651 24.2302 19.6578 22.7576V22.7683C19.6971 22.7406 19.732 22.7057 19.7722 22.6789C20.076 22.46 20.3708 22.2268 20.6567 21.9802C20.7398 21.9087 20.8247 21.8382 20.9069 21.764C21.1767 21.5183 21.4341 21.2583 21.6842 20.9866C21.7673 20.8973 21.8531 20.8106 21.9344 20.7186C21.9979 20.6444 22.0702 20.5801 22.1328 20.5042L22.1131 20.4899ZM12.5089 5.36299C13.3042 5.36299 14.0815 5.5988 14.7427 6.0406C15.4039 6.48241 15.9193 7.11036 16.2236 7.84505C16.5279 8.57974 16.6076 9.38818 16.4524 10.1681C16.2973 10.9481 15.9143 11.6645 15.352 12.2268C14.7897 12.7891 14.0733 13.172 13.2933 13.3272C12.5134 13.4823 11.705 13.4027 10.9703 13.0984C10.2356 12.7941 9.60763 12.2787 9.16583 11.6175C8.72402 10.9563 8.48821 10.1789 8.48821 9.38372C8.48821 8.31735 8.91182 7.29467 9.66586 6.54063C10.4199 5.7866 11.4426 5.36299 12.5089 5.36299ZM5.36723 20.4899C5.38273 19.3167 5.8595 18.1968 6.69439 17.3724C7.52928 16.548 8.65516 16.0855 9.82845 16.0849H15.1894C16.3627 16.0855 17.4886 16.548 18.3235 17.3724C19.1584 18.1968 19.6351 19.3167 19.6506 20.4899C17.6911 22.2557 15.1468 23.233 12.5089 23.233C9.87111 23.233 7.32681 22.2557 5.36723 20.4899Z"
          fill="#ED234B"/>
</svg>
